<svg width="124" height="59" viewBox="0 0 124 59" fill="none" xmlns="http://www.w3.org/2000/svg">
<g id="amd" clip-path="url(#clip0_1576_5947)">
<g id="Group">
<g id="Group_2">
<g id="XMLID_00000054261887759305762340000007786802640635064252_">
<g id="XMLID_00000144295652206692179930000000313640730864342658_">
<path id="XMLID_00000120553588260841402290000008779108645429090987_" d="M29.1194 27.9101H22.2408L20.1361 22.781H8.67763L6.76103 27.9101H0L10.3297 2.00293H17.7315L29.1194 27.9101ZM14.1276 8.18999L10.3708 18.2581H18.2606L14.1276 8.18999Z" fill="black"/>
<path id="XMLID_00000115492367008569876380000004417320222775751082_" d="M54.1 2.00293H59.6616V27.9101H53.271V11.7263L46.3571 19.8509H45.3812L38.4673 11.7263V27.9101H32.0767V2.00293H37.6383L45.8691 11.6134L54.1 2.00293Z" fill="black"/>
<path id="XMLID_00000101813185561532026090000000424301970855041928_" d="M75.8469 2.00293C85.2006 2.00293 90.0098 7.88688 90.0098 14.9952C90.0098 22.4422 85.3535 27.9101 75.1296 27.9101H64.5354V2.00293H75.8469ZM70.9202 23.1614H75.0885C81.5144 23.1614 83.431 18.7573 83.431 14.9536C83.431 10.5079 81.0617 6.75169 75.0121 6.75169H70.9202V23.1614Z" fill="black"/>
</g>
<g id="XMLID_00000049213571062428060240000015974422439474722947_">
<path id="XMLID_00000100380264204424614640000000992330976355342248_" d="M115.931 8.14244H102.721L94.6603 0H123.985V29.6456L115.931 21.5032V8.14244Z" fill="black"/>
<path id="XMLID_00000149384356619154414800000012971396637224134036_" d="M102.709 21.5096V9.77734L94.4133 18.1575V29.8957H106.025L114.314 21.5096H102.709Z" fill="black"/>
</g>
</g>
</g>
<g id="Group_3">
<path id="Vector" d="M43.788 44.4858H56.2577L43.788 55.3444V58.9996H61.7194V55.3741H49.2497L61.7194 44.5155V40.8604H43.788V44.4858Z" fill="black"/>
<path id="Vector_2" d="M30.5775 48.0519L25.445 40.8604H21.0121L28.7667 51.7427V58.9996H32.353V51.7427L40.1487 40.8604H35.7158L30.5775 48.0519Z" fill="black"/>
<g id="Group_4">
<path id="Vector_3" d="M84.6657 40.8604H66.7284V44.4858H84.6657V40.8604Z" fill="black"/>
<g id="Group_5">
<path id="Vector_4" d="M66.7284 48.1172V58.9995H84.6657V55.3741H70.3206V51.7427H84.6657V48.1172H66.7284Z" fill="black"/>
</g>
</g>
<g id="Group_6">
<path id="Vector_5" d="M3.58628 51.7436H10.2062L14.351 59.0005H18.4958L14.351 51.7436C16.3323 51.7436 17.9373 50.121 17.9373 48.1181V44.4927C17.9373 42.4897 16.3323 40.8672 14.351 40.8672H0V44.4927H14.0982C14.2393 44.4927 14.351 44.6056 14.351 44.7482V47.8625C14.351 48.0052 14.2393 48.1181 14.0982 48.1181H0V51.7436V59.0005H3.58628V51.7436Z" fill="black"/>
</g>
<path id="Vector_6" d="M104.467 40.8662V53.4721L93.7254 40.8662H90.1097V58.9935H93.696V46.3876L104.437 58.9935H108.047V40.8662H104.467Z" fill="black"/>
</g>
</g>
</g>
<defs>
<clipPath id="clip0_1576_5947">
<rect width="123.985" height="59" fill="white"/>
</clipPath>
</defs>
</svg>
